<mxfile host="Electron" modified="2024-06-11T19:23:33.491Z" agent="Mozilla/5.0 (Windows NT 10.0; Win64; x64) AppleWebKit/537.36 (KHTML, like Gecko) draw.io/24.5.1 Chrome/124.0.6367.207 Electron/30.0.6 Safari/537.36" etag="Jef2WtBawsSbCkW055Uc" version="24.5.1" type="device">
  <diagram name="Страница — 1" id="Pejs-l_2jrirPemMmrrm">
    <mxGraphModel dx="1114" dy="1878" grid="1" gridSize="10" guides="1" tooltips="1" connect="1" arrows="1" fold="1" page="1" pageScale="1" pageWidth="827" pageHeight="1169" math="0" shadow="0">
      <root>
        <mxCell id="0" />
        <mxCell id="1" parent="0" />
        <mxCell id="2nREJ78QqCmup1C1C7_7-50" value="" style="rounded=0;whiteSpace=wrap;html=1;dashed=1;" vertex="1" parent="1">
          <mxGeometry x="310" y="-40" width="670" height="600" as="geometry" />
        </mxCell>
        <mxCell id="2nREJ78QqCmup1C1C7_7-23" style="edgeStyle=orthogonalEdgeStyle;rounded=0;orthogonalLoop=1;jettySize=auto;html=1;exitX=0.855;exitY=0;exitDx=0;exitDy=4.35;exitPerimeter=0;" edge="1" parent="1" source="2nREJ78QqCmup1C1C7_7-1">
          <mxGeometry relative="1" as="geometry">
            <mxPoint x="129.82608695652175" y="230.00000000000023" as="targetPoint" />
          </mxGeometry>
        </mxCell>
        <mxCell id="2nREJ78QqCmup1C1C7_7-1" value="" style="shape=cylinder3;whiteSpace=wrap;html=1;boundedLbl=1;backgroundOutline=1;size=15;" vertex="1" parent="1">
          <mxGeometry x="70" y="260" width="70" height="80" as="geometry" />
        </mxCell>
        <mxCell id="2nREJ78QqCmup1C1C7_7-16" style="edgeStyle=orthogonalEdgeStyle;rounded=0;orthogonalLoop=1;jettySize=auto;html=1;exitX=0.855;exitY=1;exitDx=0;exitDy=-4.35;exitPerimeter=0;entryX=0.75;entryY=0;entryDx=0;entryDy=0;" edge="1" parent="1" source="2nREJ78QqCmup1C1C7_7-3" target="2nREJ78QqCmup1C1C7_7-4">
          <mxGeometry relative="1" as="geometry" />
        </mxCell>
        <mxCell id="2nREJ78QqCmup1C1C7_7-3" value="" style="shape=cylinder3;whiteSpace=wrap;html=1;boundedLbl=1;backgroundOutline=1;size=15;" vertex="1" parent="1">
          <mxGeometry x="430" y="-20" width="80" height="80" as="geometry" />
        </mxCell>
        <mxCell id="2nREJ78QqCmup1C1C7_7-35" style="edgeStyle=orthogonalEdgeStyle;rounded=0;orthogonalLoop=1;jettySize=auto;html=1;exitX=1;exitY=0.75;exitDx=0;exitDy=0;" edge="1" parent="1" source="2nREJ78QqCmup1C1C7_7-4">
          <mxGeometry relative="1" as="geometry">
            <mxPoint x="630.0000000000002" y="135.3157894736844" as="targetPoint" />
          </mxGeometry>
        </mxCell>
        <mxCell id="2nREJ78QqCmup1C1C7_7-4" value="cardService" style="rounded=1;whiteSpace=wrap;html=1;" vertex="1" parent="1">
          <mxGeometry x="410" y="90" width="120" height="60" as="geometry" />
        </mxCell>
        <mxCell id="2nREJ78QqCmup1C1C7_7-7" value="productProfileService" style="rounded=1;whiteSpace=wrap;html=1;" vertex="1" parent="1">
          <mxGeometry x="410" y="200" width="120" height="60" as="geometry" />
        </mxCell>
        <mxCell id="2nREJ78QqCmup1C1C7_7-10" value="API&amp;nbsp;&lt;br&gt;Gateway" style="rounded=1;whiteSpace=wrap;html=1;" vertex="1" parent="1">
          <mxGeometry x="290" y="60" width="60" height="350" as="geometry" />
        </mxCell>
        <mxCell id="2nREJ78QqCmup1C1C7_7-11" value="HTTP" style="endArrow=classic;html=1;rounded=0;entryX=0;entryY=0.25;entryDx=0;entryDy=0;" edge="1" parent="1" target="2nREJ78QqCmup1C1C7_7-4">
          <mxGeometry width="50" height="50" relative="1" as="geometry">
            <mxPoint x="353" y="105" as="sourcePoint" />
            <mxPoint x="450" y="170" as="targetPoint" />
            <Array as="points">
              <mxPoint x="390" y="105" />
            </Array>
          </mxGeometry>
        </mxCell>
        <mxCell id="2nREJ78QqCmup1C1C7_7-12" value="" style="endArrow=none;html=1;rounded=0;entryX=0;entryY=0.25;entryDx=0;entryDy=0;endFill=0;startArrow=classic;startFill=1;" edge="1" parent="1">
          <mxGeometry width="50" height="50" relative="1" as="geometry">
            <mxPoint x="353" y="130" as="sourcePoint" />
            <mxPoint x="410" y="130" as="targetPoint" />
            <Array as="points">
              <mxPoint x="380" y="130" />
              <mxPoint x="390" y="130" />
            </Array>
          </mxGeometry>
        </mxCell>
        <mxCell id="2nREJ78QqCmup1C1C7_7-13" value="HTTP" style="endArrow=classic;html=1;rounded=0;entryX=0;entryY=0.25;entryDx=0;entryDy=0;" edge="1" parent="1">
          <mxGeometry width="50" height="50" relative="1" as="geometry">
            <mxPoint x="353" y="220" as="sourcePoint" />
            <mxPoint x="410" y="220" as="targetPoint" />
            <Array as="points">
              <mxPoint x="380" y="220" />
              <mxPoint x="390" y="220" />
            </Array>
          </mxGeometry>
        </mxCell>
        <mxCell id="2nREJ78QqCmup1C1C7_7-14" value="" style="endArrow=none;html=1;rounded=0;entryX=0;entryY=0.25;entryDx=0;entryDy=0;endFill=0;startArrow=classic;startFill=1;" edge="1" parent="1">
          <mxGeometry width="50" height="50" relative="1" as="geometry">
            <mxPoint x="353" y="240" as="sourcePoint" />
            <mxPoint x="410" y="240" as="targetPoint" />
            <Array as="points">
              <mxPoint x="380" y="240" />
              <mxPoint x="390" y="240" />
            </Array>
          </mxGeometry>
        </mxCell>
        <mxCell id="2nREJ78QqCmup1C1C7_7-15" style="edgeStyle=orthogonalEdgeStyle;rounded=0;orthogonalLoop=1;jettySize=auto;html=1;exitX=0.25;exitY=0;exitDx=0;exitDy=0;entryX=0.145;entryY=1;entryDx=0;entryDy=-4.35;entryPerimeter=0;" edge="1" parent="1" source="2nREJ78QqCmup1C1C7_7-4" target="2nREJ78QqCmup1C1C7_7-3">
          <mxGeometry relative="1" as="geometry" />
        </mxCell>
        <mxCell id="2nREJ78QqCmup1C1C7_7-19" style="edgeStyle=orthogonalEdgeStyle;rounded=0;orthogonalLoop=1;jettySize=auto;html=1;exitX=0.855;exitY=0;exitDx=0;exitDy=4.35;exitPerimeter=0;entryX=0.75;entryY=1;entryDx=0;entryDy=0;" edge="1" parent="1" source="2nREJ78QqCmup1C1C7_7-17" target="2nREJ78QqCmup1C1C7_7-7">
          <mxGeometry relative="1" as="geometry" />
        </mxCell>
        <mxCell id="2nREJ78QqCmup1C1C7_7-17" value="" style="shape=cylinder3;whiteSpace=wrap;html=1;boundedLbl=1;backgroundOutline=1;size=15;" vertex="1" parent="1">
          <mxGeometry x="430" y="290" width="80" height="80" as="geometry" />
        </mxCell>
        <mxCell id="2nREJ78QqCmup1C1C7_7-18" style="edgeStyle=orthogonalEdgeStyle;rounded=0;orthogonalLoop=1;jettySize=auto;html=1;exitX=0.25;exitY=1;exitDx=0;exitDy=0;entryX=0.145;entryY=0;entryDx=0;entryDy=4.35;entryPerimeter=0;" edge="1" parent="1" source="2nREJ78QqCmup1C1C7_7-7" target="2nREJ78QqCmup1C1C7_7-17">
          <mxGeometry relative="1" as="geometry" />
        </mxCell>
        <mxCell id="2nREJ78QqCmup1C1C7_7-28" value="HTTP" style="edgeStyle=orthogonalEdgeStyle;rounded=0;orthogonalLoop=1;jettySize=auto;html=1;exitX=1;exitY=0.25;exitDx=0;exitDy=0;" edge="1" parent="1" source="2nREJ78QqCmup1C1C7_7-20">
          <mxGeometry relative="1" as="geometry">
            <mxPoint x="279.9999999999999" y="165.21739130434798" as="targetPoint" />
            <Array as="points">
              <mxPoint x="238" y="165" />
              <mxPoint x="238" y="165" />
            </Array>
          </mxGeometry>
        </mxCell>
        <mxCell id="2nREJ78QqCmup1C1C7_7-29" style="edgeStyle=orthogonalEdgeStyle;rounded=0;orthogonalLoop=1;jettySize=auto;html=1;exitX=1;exitY=0.75;exitDx=0;exitDy=0;startArrow=classic;startFill=1;endArrow=none;endFill=0;" edge="1" parent="1" source="2nREJ78QqCmup1C1C7_7-20">
          <mxGeometry relative="1" as="geometry">
            <mxPoint x="279.9999999999999" y="194.78260869565224" as="targetPoint" />
          </mxGeometry>
        </mxCell>
        <mxCell id="2nREJ78QqCmup1C1C7_7-20" value="clientWebService" style="rounded=1;whiteSpace=wrap;html=1;" vertex="1" parent="1">
          <mxGeometry x="75" y="150" width="120" height="60" as="geometry" />
        </mxCell>
        <mxCell id="2nREJ78QqCmup1C1C7_7-21" value="AUTH" style="rounded=1;whiteSpace=wrap;html=1;" vertex="1" parent="1">
          <mxGeometry x="75" y="190" width="60" height="30" as="geometry" />
        </mxCell>
        <mxCell id="2nREJ78QqCmup1C1C7_7-22" style="edgeStyle=orthogonalEdgeStyle;rounded=0;orthogonalLoop=1;jettySize=auto;html=1;entryX=0.5;entryY=0;entryDx=0;entryDy=0;entryPerimeter=0;" edge="1" parent="1" source="2nREJ78QqCmup1C1C7_7-21" target="2nREJ78QqCmup1C1C7_7-1">
          <mxGeometry relative="1" as="geometry" />
        </mxCell>
        <mxCell id="2nREJ78QqCmup1C1C7_7-26" style="edgeStyle=orthogonalEdgeStyle;rounded=0;orthogonalLoop=1;jettySize=auto;html=1;entryX=0.5;entryY=0;entryDx=0;entryDy=0;" edge="1" parent="1" source="2nREJ78QqCmup1C1C7_7-24" target="2nREJ78QqCmup1C1C7_7-20">
          <mxGeometry relative="1" as="geometry" />
        </mxCell>
        <mxCell id="2nREJ78QqCmup1C1C7_7-24" value="Client" style="shape=umlActor;verticalLabelPosition=bottom;verticalAlign=top;html=1;outlineConnect=0;" vertex="1" parent="1">
          <mxGeometry x="120" y="10" width="30" height="60" as="geometry" />
        </mxCell>
        <mxCell id="2nREJ78QqCmup1C1C7_7-34" value="HTTP" style="edgeStyle=orthogonalEdgeStyle;rounded=0;orthogonalLoop=1;jettySize=auto;html=1;exitX=0;exitY=0.25;exitDx=0;exitDy=0;entryX=1;entryY=0.25;entryDx=0;entryDy=0;" edge="1" parent="1" source="2nREJ78QqCmup1C1C7_7-30" target="2nREJ78QqCmup1C1C7_7-4">
          <mxGeometry relative="1" as="geometry">
            <Array as="points">
              <mxPoint x="610" y="105" />
              <mxPoint x="610" y="105" />
            </Array>
          </mxGeometry>
        </mxCell>
        <mxCell id="2nREJ78QqCmup1C1C7_7-43" value="Link" style="edgeStyle=orthogonalEdgeStyle;rounded=0;orthogonalLoop=1;jettySize=auto;html=1;" edge="1" parent="1" source="2nREJ78QqCmup1C1C7_7-30">
          <mxGeometry relative="1" as="geometry">
            <mxPoint x="700" y="450" as="targetPoint" />
          </mxGeometry>
        </mxCell>
        <mxCell id="2nREJ78QqCmup1C1C7_7-52" value="LINK" style="edgeStyle=orthogonalEdgeStyle;rounded=0;orthogonalLoop=1;jettySize=auto;html=1;exitX=1;exitY=1;exitDx=0;exitDy=0;entryX=0.25;entryY=0;entryDx=0;entryDy=0;" edge="1" parent="1" source="2nREJ78QqCmup1C1C7_7-30" target="2nREJ78QqCmup1C1C7_7-51">
          <mxGeometry relative="1" as="geometry" />
        </mxCell>
        <mxCell id="2nREJ78QqCmup1C1C7_7-30" value="clientWebService" style="rounded=1;whiteSpace=wrap;html=1;" vertex="1" parent="1">
          <mxGeometry x="640" y="90" width="120" height="60" as="geometry" />
        </mxCell>
        <mxCell id="2nREJ78QqCmup1C1C7_7-31" value="AUTH" style="rounded=1;whiteSpace=wrap;html=1;" vertex="1" parent="1">
          <mxGeometry x="640" y="130" width="60" height="30" as="geometry" />
        </mxCell>
        <mxCell id="2nREJ78QqCmup1C1C7_7-32" style="edgeStyle=orthogonalEdgeStyle;rounded=0;orthogonalLoop=1;jettySize=auto;html=1;entryX=0.5;entryY=0;entryDx=0;entryDy=0;" edge="1" parent="1" source="2nREJ78QqCmup1C1C7_7-33" target="2nREJ78QqCmup1C1C7_7-30">
          <mxGeometry relative="1" as="geometry" />
        </mxCell>
        <mxCell id="2nREJ78QqCmup1C1C7_7-33" value="Manager/administrator" style="shape=umlActor;verticalLabelPosition=bottom;verticalAlign=top;html=1;outlineConnect=0;" vertex="1" parent="1">
          <mxGeometry x="685" y="-20" width="30" height="60" as="geometry" />
        </mxCell>
        <mxCell id="2nREJ78QqCmup1C1C7_7-38" value="HTTP" style="edgeStyle=orthogonalEdgeStyle;rounded=0;orthogonalLoop=1;jettySize=auto;html=1;exitX=0.25;exitY=0;exitDx=0;exitDy=0;" edge="1" parent="1" source="2nREJ78QqCmup1C1C7_7-36">
          <mxGeometry relative="1" as="geometry">
            <mxPoint x="180" y="220" as="targetPoint" />
          </mxGeometry>
        </mxCell>
        <mxCell id="2nREJ78QqCmup1C1C7_7-40" value="HTTP" style="edgeStyle=orthogonalEdgeStyle;rounded=0;orthogonalLoop=1;jettySize=auto;html=1;exitX=1;exitY=0.25;exitDx=0;exitDy=0;" edge="1" parent="1" source="2nREJ78QqCmup1C1C7_7-36">
          <mxGeometry relative="1" as="geometry">
            <mxPoint x="620" y="475.6923076923076" as="targetPoint" />
            <Array as="points">
              <mxPoint x="440" y="480" />
              <mxPoint x="440" y="480" />
            </Array>
          </mxGeometry>
        </mxCell>
        <mxCell id="2nREJ78QqCmup1C1C7_7-36" value="Prometheus" style="rounded=1;whiteSpace=wrap;html=1;" vertex="1" parent="1">
          <mxGeometry x="150" y="460" width="120" height="60" as="geometry" />
        </mxCell>
        <mxCell id="2nREJ78QqCmup1C1C7_7-37" style="edgeStyle=orthogonalEdgeStyle;rounded=0;orthogonalLoop=1;jettySize=auto;html=1;exitX=0.75;exitY=1;exitDx=0;exitDy=0;entryX=0.126;entryY=-0.012;entryDx=0;entryDy=0;entryPerimeter=0;" edge="1" parent="1" source="2nREJ78QqCmup1C1C7_7-20" target="2nREJ78QqCmup1C1C7_7-36">
          <mxGeometry relative="1" as="geometry" />
        </mxCell>
        <mxCell id="2nREJ78QqCmup1C1C7_7-41" style="edgeStyle=orthogonalEdgeStyle;rounded=0;orthogonalLoop=1;jettySize=auto;html=1;entryX=1;entryY=0.5;entryDx=0;entryDy=0;" edge="1" parent="1" source="2nREJ78QqCmup1C1C7_7-39" target="2nREJ78QqCmup1C1C7_7-36">
          <mxGeometry relative="1" as="geometry" />
        </mxCell>
        <mxCell id="2nREJ78QqCmup1C1C7_7-39" value="Grafana" style="rounded=1;whiteSpace=wrap;html=1;" vertex="1" parent="1">
          <mxGeometry x="630" y="460" width="120" height="60" as="geometry" />
        </mxCell>
        <mxCell id="2nREJ78QqCmup1C1C7_7-54" style="edgeStyle=orthogonalEdgeStyle;rounded=0;orthogonalLoop=1;jettySize=auto;html=1;exitX=0;exitY=0.5;exitDx=0;exitDy=0;entryX=1;entryY=0.75;entryDx=0;entryDy=0;startArrow=classic;startFill=1;" edge="1" parent="1" source="2nREJ78QqCmup1C1C7_7-51" target="2nREJ78QqCmup1C1C7_7-7">
          <mxGeometry relative="1" as="geometry" />
        </mxCell>
        <mxCell id="2nREJ78QqCmup1C1C7_7-55" style="edgeStyle=orthogonalEdgeStyle;rounded=0;orthogonalLoop=1;jettySize=auto;html=1;exitX=0.5;exitY=0;exitDx=0;exitDy=0;entryX=1;entryY=0.5;entryDx=0;entryDy=0;startArrow=classic;startFill=1;" edge="1" parent="1" source="2nREJ78QqCmup1C1C7_7-51" target="2nREJ78QqCmup1C1C7_7-30">
          <mxGeometry relative="1" as="geometry" />
        </mxCell>
        <mxCell id="2nREJ78QqCmup1C1C7_7-56" style="edgeStyle=orthogonalEdgeStyle;rounded=0;orthogonalLoop=1;jettySize=auto;html=1;entryX=1;entryY=1;entryDx=0;entryDy=0;startArrow=classic;startFill=1;" edge="1" parent="1" source="2nREJ78QqCmup1C1C7_7-51">
          <mxGeometry relative="1" as="geometry">
            <mxPoint x="780" y="250" as="sourcePoint" />
            <mxPoint x="530" y="140" as="targetPoint" />
            <Array as="points">
              <mxPoint x="600" y="220" />
              <mxPoint x="600" y="180" />
              <mxPoint x="530" y="180" />
            </Array>
          </mxGeometry>
        </mxCell>
        <mxCell id="2nREJ78QqCmup1C1C7_7-58" style="edgeStyle=orthogonalEdgeStyle;rounded=0;orthogonalLoop=1;jettySize=auto;html=1;exitX=0.75;exitY=0;exitDx=0;exitDy=0;entryX=0.75;entryY=0;entryDx=0;entryDy=0;startArrow=classic;startFill=1;" edge="1" parent="1" source="2nREJ78QqCmup1C1C7_7-51" target="2nREJ78QqCmup1C1C7_7-20">
          <mxGeometry relative="1" as="geometry">
            <Array as="points">
              <mxPoint x="870" y="-90" />
              <mxPoint x="165" y="-90" />
            </Array>
          </mxGeometry>
        </mxCell>
        <mxCell id="2nREJ78QqCmup1C1C7_7-51" value="EURIKA" style="rounded=1;whiteSpace=wrap;html=1;" vertex="1" parent="1">
          <mxGeometry x="780" y="190" width="120" height="280" as="geometry" />
        </mxCell>
        <mxCell id="2nREJ78QqCmup1C1C7_7-57" style="edgeStyle=orthogonalEdgeStyle;rounded=0;orthogonalLoop=1;jettySize=auto;html=1;exitX=0;exitY=0.75;exitDx=0;exitDy=0;entryX=1.083;entryY=0.966;entryDx=0;entryDy=0;entryPerimeter=0;startArrow=classic;startFill=1;" edge="1" parent="1" source="2nREJ78QqCmup1C1C7_7-51" target="2nREJ78QqCmup1C1C7_7-10">
          <mxGeometry relative="1" as="geometry" />
        </mxCell>
      </root>
    </mxGraphModel>
  </diagram>
</mxfile>
